<mxfile host="app.diagrams.net" agent="Mozilla/5.0 (X11; Linux x86_64) AppleWebKit/537.36 (KHTML, like Gecko) Chrome/133.0.0.0 Safari/537.36" version="26.0.11">
  <diagram name="Page-1" id="b5b7bab2-c9e2-2cf4-8b2a-24fd1a2a6d21">
    <mxGraphModel dx="1363" dy="833" grid="1" gridSize="10" guides="1" tooltips="1" connect="1" arrows="1" fold="1" page="1" pageScale="1" pageWidth="827" pageHeight="1169" background="none" math="0" shadow="0">
      <root>
        <mxCell id="0" />
        <mxCell id="1" parent="0" />
        <mxCell id="vkHWcVJwc6IFvlE2eJ61-2" value="&lt;div&gt;&lt;br style=&quot;font-family: Verdana; font-size: 10px; font-weight: 400; text-align: left; text-wrap-mode: nowrap;&quot;&gt;&lt;/div&gt;" style="shape=folder;fontStyle=1;spacingTop=10;tabWidth=40;tabHeight=14;tabPosition=left;html=1;whiteSpace=wrap;" vertex="1" parent="1">
          <mxGeometry x="410" y="150" width="830" height="390" as="geometry" />
        </mxCell>
        <mxCell id="vkHWcVJwc6IFvlE2eJ61-3" value="&lt;font style=&quot;font-size: 29px;&quot;&gt;Fixed-Size Buffer Pattern&lt;/font&gt;" style="text;whiteSpace=wrap;html=1;" vertex="1" parent="1">
          <mxGeometry x="650" y="110" width="340" height="50" as="geometry" />
        </mxCell>
        <mxCell id="vkHWcVJwc6IFvlE2eJ61-5" value="&lt;p style=&quot;margin:0px;margin-top:4px;text-align:center;&quot;&gt;&lt;b&gt;Cliente&lt;/b&gt;&lt;/p&gt;" style="verticalAlign=top;align=left;overflow=fill;html=1;whiteSpace=wrap;" vertex="1" parent="1">
          <mxGeometry x="440" y="185" width="140" height="60" as="geometry" />
        </mxCell>
        <mxCell id="vkHWcVJwc6IFvlE2eJ61-6" value="&lt;p style=&quot;margin:0px;margin-top:4px;text-align:center;&quot;&gt;&lt;b&gt;Fabrica de Objetos&lt;/b&gt;&lt;/p&gt;" style="verticalAlign=top;align=left;overflow=fill;html=1;whiteSpace=wrap;" vertex="1" parent="1">
          <mxGeometry x="440" y="281" width="140" height="60" as="geometry" />
        </mxCell>
        <mxCell id="vkHWcVJwc6IFvlE2eJ61-7" value="dispatch" style="html=1;verticalAlign=bottom;endArrow=block;curved=0;rounded=0;exitX=0.5;exitY=1;exitDx=0;exitDy=0;" edge="1" parent="1" source="vkHWcVJwc6IFvlE2eJ61-5" target="vkHWcVJwc6IFvlE2eJ61-6">
          <mxGeometry width="80" relative="1" as="geometry">
            <mxPoint x="510" y="290" as="sourcePoint" />
            <mxPoint x="590" y="290" as="targetPoint" />
          </mxGeometry>
        </mxCell>
        <mxCell id="vkHWcVJwc6IFvlE2eJ61-8" value="&lt;p style=&quot;margin:0px;margin-top:4px;text-align:center;&quot;&gt;&lt;b&gt;Gerenciador da Pilha&lt;/b&gt;&lt;/p&gt;" style="verticalAlign=top;align=left;overflow=fill;html=1;whiteSpace=wrap;" vertex="1" parent="1">
          <mxGeometry x="440" y="385" width="140" height="60" as="geometry" />
        </mxCell>
        <mxCell id="vkHWcVJwc6IFvlE2eJ61-9" value="dispatch" style="html=1;verticalAlign=bottom;endArrow=block;curved=0;rounded=0;exitX=0.5;exitY=1;exitDx=0;exitDy=0;" edge="1" parent="1" source="vkHWcVJwc6IFvlE2eJ61-6" target="vkHWcVJwc6IFvlE2eJ61-8">
          <mxGeometry width="80" relative="1" as="geometry">
            <mxPoint x="509.5" y="390" as="sourcePoint" />
            <mxPoint x="510" y="380" as="targetPoint" />
          </mxGeometry>
        </mxCell>
        <mxCell id="vkHWcVJwc6IFvlE2eJ61-10" value="&lt;p style=&quot;margin:0px;margin-top:4px;text-align:center;&quot;&gt;&lt;b&gt;Pilha de Blocos Pequenos&lt;/b&gt;&lt;/p&gt;" style="verticalAlign=top;align=left;overflow=fill;html=1;whiteSpace=wrap;" vertex="1" parent="1">
          <mxGeometry x="687" y="310" width="203" height="58" as="geometry" />
        </mxCell>
        <mxCell id="vkHWcVJwc6IFvlE2eJ61-11" value="&lt;p style=&quot;margin:0px;margin-top:4px;text-align:center;&quot;&gt;&lt;b&gt;Pilha de Blocos Médios&lt;/b&gt;&lt;/p&gt;" style="verticalAlign=top;align=left;overflow=fill;html=1;whiteSpace=wrap;" vertex="1" parent="1">
          <mxGeometry x="687" y="390" width="203" height="60" as="geometry" />
        </mxCell>
        <mxCell id="vkHWcVJwc6IFvlE2eJ61-12" value="&lt;p style=&quot;margin:0px;margin-top:4px;text-align:center;&quot;&gt;&lt;b&gt;Pilha de Blocos Grandes&lt;/b&gt;&lt;/p&gt;" style="verticalAlign=top;align=left;overflow=fill;html=1;whiteSpace=wrap;" vertex="1" parent="1">
          <mxGeometry x="687" y="470" width="203" height="60" as="geometry" />
        </mxCell>
        <mxCell id="vkHWcVJwc6IFvlE2eJ61-13" value="name" style="endArrow=block;endFill=1;html=1;edgeStyle=orthogonalEdgeStyle;align=left;verticalAlign=top;rounded=0;entryX=0;entryY=0.5;entryDx=0;entryDy=0;" edge="1" parent="1" target="vkHWcVJwc6IFvlE2eJ61-10">
          <mxGeometry x="-1" relative="1" as="geometry">
            <mxPoint x="580" y="420" as="sourcePoint" />
            <mxPoint x="740" y="420" as="targetPoint" />
          </mxGeometry>
        </mxCell>
        <mxCell id="vkHWcVJwc6IFvlE2eJ61-14" value="1" style="edgeLabel;resizable=0;html=1;align=left;verticalAlign=bottom;" connectable="0" vertex="1" parent="vkHWcVJwc6IFvlE2eJ61-13">
          <mxGeometry x="-1" relative="1" as="geometry" />
        </mxCell>
        <mxCell id="vkHWcVJwc6IFvlE2eJ61-15" value="name" style="endArrow=block;endFill=1;html=1;edgeStyle=orthogonalEdgeStyle;align=left;verticalAlign=top;rounded=0;entryX=0;entryY=0.5;entryDx=0;entryDy=0;" edge="1" parent="1" target="vkHWcVJwc6IFvlE2eJ61-11">
          <mxGeometry x="-1" relative="1" as="geometry">
            <mxPoint x="580" y="420" as="sourcePoint" />
            <mxPoint x="697" y="340" as="targetPoint" />
          </mxGeometry>
        </mxCell>
        <mxCell id="vkHWcVJwc6IFvlE2eJ61-16" value="1" style="edgeLabel;resizable=0;html=1;align=left;verticalAlign=bottom;" connectable="0" vertex="1" parent="vkHWcVJwc6IFvlE2eJ61-15">
          <mxGeometry x="-1" relative="1" as="geometry" />
        </mxCell>
        <mxCell id="vkHWcVJwc6IFvlE2eJ61-17" value="name" style="endArrow=block;endFill=1;html=1;edgeStyle=orthogonalEdgeStyle;align=left;verticalAlign=top;rounded=0;entryX=0;entryY=0.5;entryDx=0;entryDy=0;exitX=1.009;exitY=0.626;exitDx=0;exitDy=0;exitPerimeter=0;" edge="1" parent="1" target="vkHWcVJwc6IFvlE2eJ61-12">
          <mxGeometry x="-1" relative="1" as="geometry">
            <mxPoint x="581.26" y="420.55999999999995" as="sourcePoint" />
            <mxPoint x="707" y="348" as="targetPoint" />
          </mxGeometry>
        </mxCell>
        <mxCell id="vkHWcVJwc6IFvlE2eJ61-18" value="1" style="edgeLabel;resizable=0;html=1;align=left;verticalAlign=bottom;" connectable="0" vertex="1" parent="vkHWcVJwc6IFvlE2eJ61-17">
          <mxGeometry x="-1" relative="1" as="geometry" />
        </mxCell>
        <mxCell id="vkHWcVJwc6IFvlE2eJ61-19" value="1" style="endArrow=open;html=1;endSize=12;startArrow=diamondThin;startSize=14;startFill=1;edgeStyle=orthogonalEdgeStyle;align=left;verticalAlign=bottom;rounded=0;exitX=1;exitY=0.5;exitDx=0;exitDy=0;entryX=0;entryY=0.5;entryDx=0;entryDy=0;" edge="1" parent="1" source="vkHWcVJwc6IFvlE2eJ61-10" target="vkHWcVJwc6IFvlE2eJ61-20">
          <mxGeometry x="-1" y="3" relative="1" as="geometry">
            <mxPoint x="860" y="260" as="sourcePoint" />
            <mxPoint x="1020" y="260" as="targetPoint" />
          </mxGeometry>
        </mxCell>
        <mxCell id="vkHWcVJwc6IFvlE2eJ61-20" value="&lt;p style=&quot;margin:0px;margin-top:4px;text-align:center;&quot;&gt;&lt;b&gt;Lista de Blocos Pequenos Livres&lt;/b&gt;&lt;/p&gt;" style="verticalAlign=top;align=left;overflow=fill;html=1;whiteSpace=wrap;" vertex="1" parent="1">
          <mxGeometry x="999" y="310" width="203" height="58" as="geometry" />
        </mxCell>
        <mxCell id="vkHWcVJwc6IFvlE2eJ61-21" value="&lt;p style=&quot;margin:0px;margin-top:4px;text-align:center;&quot;&gt;&lt;b&gt;Lista de Blocos Médios Livres&lt;/b&gt;&lt;/p&gt;" style="verticalAlign=top;align=left;overflow=fill;html=1;whiteSpace=wrap;" vertex="1" parent="1">
          <mxGeometry x="999" y="390" width="203" height="60" as="geometry" />
        </mxCell>
        <mxCell id="vkHWcVJwc6IFvlE2eJ61-22" value="&lt;p style=&quot;margin:0px;margin-top:4px;text-align:center;&quot;&gt;&lt;b&gt;Lista de Blocos Grandes Livres&lt;/b&gt;&lt;/p&gt;" style="verticalAlign=top;align=left;overflow=fill;html=1;whiteSpace=wrap;" vertex="1" parent="1">
          <mxGeometry x="999" y="470" width="203" height="60" as="geometry" />
        </mxCell>
        <mxCell id="vkHWcVJwc6IFvlE2eJ61-23" value="1" style="endArrow=open;html=1;endSize=12;startArrow=diamondThin;startSize=14;startFill=1;edgeStyle=orthogonalEdgeStyle;align=left;verticalAlign=bottom;rounded=0;exitX=1;exitY=0.5;exitDx=0;exitDy=0;" edge="1" parent="1" source="vkHWcVJwc6IFvlE2eJ61-11">
          <mxGeometry x="-1" y="3" relative="1" as="geometry">
            <mxPoint x="900" y="349" as="sourcePoint" />
            <mxPoint x="998" y="420" as="targetPoint" />
          </mxGeometry>
        </mxCell>
        <mxCell id="vkHWcVJwc6IFvlE2eJ61-24" value="1" style="endArrow=open;html=1;endSize=12;startArrow=diamondThin;startSize=14;startFill=1;edgeStyle=orthogonalEdgeStyle;align=left;verticalAlign=bottom;rounded=0;exitX=1;exitY=0.5;exitDx=0;exitDy=0;" edge="1" parent="1" source="vkHWcVJwc6IFvlE2eJ61-12">
          <mxGeometry x="-1" y="3" relative="1" as="geometry">
            <mxPoint x="900" y="430" as="sourcePoint" />
            <mxPoint x="1000" y="500" as="targetPoint" />
          </mxGeometry>
        </mxCell>
      </root>
    </mxGraphModel>
  </diagram>
</mxfile>
